<?xml version="1.0" encoding="UTF-8" standalone="no"?>
<svg
   xmlns:dc="http://purl.org/dc/elements/1.1/"
   xmlns:cc="http://creativecommons.org/ns#"
   xmlns:rdf="http://www.w3.org/1999/02/22-rdf-syntax-ns#"
   xmlns:svg="http://www.w3.org/2000/svg"
   xmlns="http://www.w3.org/2000/svg"
   viewBox="0 0 2933.3333 2933.3333"
   height="2933.3333"
   width="2933.3333"
   xml:space="preserve"
   id="svg2"
   version="1.1"><metadata
     id="metadata8"><rdf:RDF><cc:Work
         rdf:about=""><dc:format>image/svg+xml</dc:format><dc:type
           rdf:resource="http://purl.org/dc/dcmitype/StillImage" /></cc:Work></rdf:RDF></metadata><defs
     id="defs6" /><g
     transform="matrix(1.3333333,0,0,-1.3333333,0,2933.3333)"
     id="g10"><g
       transform="scale(0.1)"
       id="g12"><g
         transform="scale(1.34969)"
         id="g14"><path
           id="path16"
           style="fill:#ffffff;fill-opacity:1;fill-rule:nonzero;stroke:none"
           d="M 16300,0 H 0 V 16300 H 16300 V 0" /></g><path
         id="path18"
         style="fill:#040606;fill-opacity:1;fill-rule:nonzero;stroke:none"
         d="m 14317.2,9259.2 c 292.6,2091.9 -945,3020.8 -2538.1,3264.2 30.3,-1974 95.1,-4292.1 63,-5587.1 -25.4,-1022.5 -971.9,-1851.9 -2170.8,-1851.9 -1198.89,0 -2170.77,829.1 -2170.77,1851.9 0,1022.7 971.88,1851.8 2170.77,1851.8 657,0 1119.8,-297.1 1330,-543.6 -29,2544.1 -67.6,5300.5 -87,6711.6 -7.2,529.1 156.4,659.6 369.7,659.6 333.4,0 344.4,-380.8 449.3,-558.1 274.4,-502.7 821,-545.7 1390.1,-766.7 919.9,-357.4 1644.8,-1252.9 1852.2,-2288.6 192,-958 -64.7,-2006.2 -658.4,-2743.1" /><g
         transform="scale(1.18957)"
         id="g20"><path
           id="path22"
           style="fill:#040606;fill-opacity:1;fill-rule:nonzero;stroke:none"
           d="m 13686.6,14312.2 c 91.6,654.1 -295.5,944.6 -793.6,1020.7 9.4,-617.3 29.6,-1342.2 19.6,-1747.2 -7.9,-319.7 -303.9,-579.1 -678.9,-579.1 -374.9,0 -678.8,259.3 -678.8,579.1 0,319.9 303.9,579.1 678.8,579.1 205.5,0 350.3,-92.9 416,-170 -9.1,795.6 -21.2,1657.6 -27.2,2098.9 -2.3,165.5 48.9,206.3 115.6,206.3 104.3,0 107.7,-119.1 140.5,-174.5 85.8,-157.2 256.7,-170.7 434.8,-239.8 287.6,-111.8 514.3,-391.8 579.2,-715.7 60,-299.6 -20.3,-627.4 -206,-857.8" /></g><path
         id="path24"
         style="fill:#040606;fill-opacity:1;fill-rule:nonzero;stroke:none"
         d="m 8680.3,12529.5 c 125.59,897.6 -405.49,1296.2 -1089.06,1400.7 13,-847.1 40.77,-1841.7 26.99,-2397.5 -10.88,-438.7 -417.03,-794.6 -931.47,-794.6 -514.44,0 -931.48,355.8 -931.48,794.6 0,438.9 417.04,794.7 931.48,794.7 281.93,0 480.51,-127.5 570.7,-233.3 -12.44,1091.7 -29.01,2274.5 -37.32,2880 -3.11,227 67.09,283 158.62,283 143.06,0 147.79,-163.4 192.82,-239.5 117.72,-215.7 352.28,-234.2 596.49,-329 394.73,-153.3 705.77,-537.6 794.78,-982 82.39,-411.1 -27.77,-860.9 -282.55,-1177.1" /><g
         transform="scale(1.02686)"
         id="g26"><path
           id="path28"
           style="fill:#d0d1cf;fill-opacity:1;fill-rule:nonzero;stroke:none"
           d="m 16300,3013.17 c 0,-260.31 -2501.7,-471.44 -5587.7,-471.44 -3086.03,0 -5587.75,211.13 -5587.75,471.44 0,260.41 2501.72,471.54 5587.75,471.54 3086,0 5587.7,-211.13 5587.7,-471.54" /></g></g></g></svg>